<svg xmlns="http://www.w3.org/2000/svg" xmlns:xlink="http://www.w3.org/1999/xlink" width="500" zoomAndPan="magnify" viewBox="0 0 375 374.999991" height="500" preserveAspectRatio="xMidYMid meet" version="1.0"><defs><g/><clipPath id="5648aeaa6b"><path d="M 0.0117188 142.457031 L 374.988281 142.457031 L 374.988281 232.457031 L 0.0117188 232.457031 Z M 0.0117188 142.457031 " clip-rule="nonzero"/></clipPath><clipPath id="81ddda95ac"><path d="M 9.519531 151.070312 L 164.238281 151.070312 L 164.238281 224.226562 L 9.519531 224.226562 Z M 9.519531 151.070312 " clip-rule="nonzero"/></clipPath></defs><g clip-path="url(#5648aeaa6b)"><path stroke-linecap="butt" transform="matrix(0.75, 0, 0, 0.749317, 0.0133516, 142.455766)" fill="none" stroke-linejoin="miter" d="M -0.00217709 0.00168874 L 499.966606 0.00168874 L 499.966606 120.111063 L -0.00217709 120.111063 L -0.00217709 0.00168874 " stroke="#000000" stroke-width="6" stroke-opacity="1" stroke-miterlimit="4"/></g><g clip-path="url(#81ddda95ac)"><path fill="#000000" d="M 9.519531 151.070312 L 164.46875 151.070312 L 164.46875 224.328125 L 9.519531 224.328125 Z M 9.519531 151.070312 " fill-opacity="1" fill-rule="nonzero"/></g><g fill="#ffffff" fill-opacity="1"><g transform="translate(33.808689, 198.89782)"><g><path d="M 1.335938 0 L 5.019531 0 L 12.078125 -10.21875 L 14.113281 -7.269531 L 19.132812 0 L 22.785156 0 L 13.972656 -12.605469 L 22.363281 -24.578125 L 18.75 -24.578125 L 14.148438 -17.976562 L 12.078125 -14.886719 L 5.371094 -24.578125 L 1.683594 -24.578125 L 10.113281 -12.570312 Z M 1.335938 0 "/></g></g></g><g fill="#ffffff" fill-opacity="1"><g transform="translate(60.589243, 198.89782)"><g><path d="M 3.582031 0 L 6.671875 0 L 6.671875 -8.074219 L 11.902344 -8.074219 C 17.449219 -8.074219 21.03125 -11.269531 21.03125 -16.324219 C 21.03125 -21.347656 17.449219 -24.578125 11.902344 -24.578125 L 3.582031 -24.578125 Z M 6.671875 -10.953125 L 6.671875 -21.628906 L 11.832031 -21.628906 C 15.800781 -21.628906 17.871094 -19.800781 17.871094 -16.289062 C 17.871094 -12.78125 15.800781 -10.953125 11.832031 -10.953125 Z M 6.671875 -10.953125 "/></g></g></g><g fill="#ffffff" fill-opacity="1"><g transform="translate(85.685113, 198.89782)"><g><path d="M 9.515625 0 L 12.605469 0 L 12.605469 -21.628906 L 20.890625 -21.628906 L 20.890625 -24.578125 L 1.195312 -24.578125 L 1.195312 -21.628906 L 9.515625 -21.628906 Z M 9.515625 0 "/></g></g></g><g fill="#ffffff" fill-opacity="1"><g transform="translate(110.465096, 198.89782)"><g><path d="M 14.746094 0.457031 C 22.222656 0.457031 27.492188 -4.808594 27.492188 -12.289062 C 27.492188 -19.765625 22.222656 -25.03125 14.746094 -25.03125 C 7.269531 -25.03125 2.035156 -19.765625 2.035156 -12.289062 C 2.035156 -4.808594 7.269531 0.457031 14.746094 0.457031 Z M 5.195312 -12.289062 C 5.195312 -18.011719 9.09375 -21.945312 14.746094 -21.945312 C 20.398438 -21.945312 24.296875 -18.011719 24.296875 -12.289062 C 24.296875 -6.566406 20.398438 -2.632812 14.746094 -2.632812 C 9.09375 -2.632812 5.195312 -6.566406 5.195312 -12.289062 Z M 5.195312 -12.289062 "/></g></g></g><g fill="#000000" fill-opacity="1"><g transform="translate(178.905608, 200.960334)"><g><path d="M 9.785156 0.453125 C 15.019531 0.453125 18.121094 -2.015625 18.121094 -6.171875 C 18.121094 -9.664062 15.863281 -11.710938 10.746094 -12.855469 C 8.039062 -13.457031 7.042969 -14.117188 7.042969 -15.203125 C 7.042969 -16.226562 7.945312 -16.859375 9.363281 -16.859375 C 11.046875 -16.859375 12.011719 -15.984375 12.011719 -14.390625 L 17.730469 -14.390625 C 17.730469 -18.722656 14.417969 -21.523438 9.242188 -21.523438 C 4.273438 -21.523438 1.203125 -19.054688 1.203125 -15.082031 C 1.203125 -11.53125 3.523438 -9.332031 8.277344 -8.429688 C 10.835938 -7.917969 12.070312 -7.132812 12.070312 -5.929688 C 12.070312 -4.875 11.167969 -4.273438 9.691406 -4.273438 C 7.945312 -4.273438 6.921875 -5.207031 6.921875 -6.832031 L 1.054688 -6.832031 C 1.054688 -2.289062 4.304688 0.453125 9.785156 0.453125 Z M 9.785156 0.453125 "/></g></g></g><g fill="#000000" fill-opacity="1"><g transform="translate(198.141065, 200.960334)"><g><path d="M 12.492188 0.453125 C 19.207031 0.453125 23.960938 -4.09375 23.960938 -10.535156 C 23.960938 -16.976562 19.207031 -21.523438 12.492188 -21.523438 C 5.78125 -21.523438 1.023438 -16.976562 1.023438 -10.535156 C 1.023438 -4.09375 5.78125 0.453125 12.492188 0.453125 Z M 7.195312 -10.535156 C 7.195312 -13.695312 9.390625 -15.894531 12.492188 -15.894531 C 15.625 -15.894531 17.789062 -13.695312 17.789062 -10.535156 C 17.789062 -7.375 15.625 -5.179688 12.492188 -5.179688 C 9.390625 -5.179688 7.195312 -7.375 7.195312 -10.535156 Z M 7.195312 -10.535156 "/></g></g></g><g fill="#000000" fill-opacity="1"><g transform="translate(223.156189, 200.960334)"><g><path d="M 2.226562 0 L 16.917969 0 L 16.917969 -5.628906 L 8.308594 -5.628906 L 8.308594 -21.070312 L 2.226562 -21.070312 Z M 2.226562 0 "/></g></g></g><g fill="#000000" fill-opacity="1"><g transform="translate(240.826308, 200.960334)"><g><path d="M 11.289062 0.453125 C 16.976562 0.453125 20.5 -3.011719 20.5 -8.667969 L 20.5 -21.070312 L 14.449219 -21.070312 L 14.449219 -9.0625 C 14.449219 -6.5625 13.394531 -5.238281 11.289062 -5.238281 C 9.179688 -5.238281 8.128906 -6.5625 8.128906 -9.0625 L 8.128906 -21.070312 L 2.046875 -21.070312 L 2.046875 -8.667969 C 2.046875 -3.011719 5.597656 0.453125 11.289062 0.453125 Z M 11.289062 0.453125 "/></g></g></g><g fill="#000000" fill-opacity="1"><g transform="translate(263.403126, 200.960334)"><g><path d="M 7.253906 0 L 13.304688 0 L 13.304688 -15.441406 L 19.71875 -15.441406 L 19.71875 -21.070312 L 0.84375 -21.070312 L 0.84375 -15.441406 L 7.253906 -15.441406 Z M 7.253906 0 "/></g></g></g><g fill="#000000" fill-opacity="1"><g transform="translate(283.963079, 200.960334)"><g><path d="M 2.226562 0 L 8.308594 0 L 8.308594 -21.070312 L 2.226562 -21.070312 Z M 2.226562 0 "/></g></g></g><g fill="#000000" fill-opacity="1"><g transform="translate(294.498924, 200.960334)"><g><path d="M 12.492188 0.453125 C 19.207031 0.453125 23.960938 -4.09375 23.960938 -10.535156 C 23.960938 -16.976562 19.207031 -21.523438 12.492188 -21.523438 C 5.78125 -21.523438 1.023438 -16.976562 1.023438 -10.535156 C 1.023438 -4.09375 5.78125 0.453125 12.492188 0.453125 Z M 7.195312 -10.535156 C 7.195312 -13.695312 9.390625 -15.894531 12.492188 -15.894531 C 15.625 -15.894531 17.789062 -13.695312 17.789062 -10.535156 C 17.789062 -7.375 15.625 -5.179688 12.492188 -5.179688 C 9.390625 -5.179688 7.195312 -7.375 7.195312 -10.535156 Z M 7.195312 -10.535156 "/></g></g></g><g fill="#000000" fill-opacity="1"><g transform="translate(319.514047, 200.960334)"><g><path d="M 2.226562 0 L 8.25 0 L 8.25 -10.746094 L 16.253906 0 L 21.191406 0 L 21.191406 -21.070312 L 15.203125 -21.070312 L 15.203125 -10.386719 L 7.195312 -21.070312 L 2.226562 -21.070312 Z M 2.226562 0 "/></g></g></g><g fill="#000000" fill-opacity="1"><g transform="translate(342.963833, 200.960334)"><g><path d="M 9.785156 0.453125 C 15.019531 0.453125 18.121094 -2.015625 18.121094 -6.171875 C 18.121094 -9.664062 15.863281 -11.710938 10.746094 -12.855469 C 8.039062 -13.457031 7.042969 -14.117188 7.042969 -15.203125 C 7.042969 -16.226562 7.945312 -16.859375 9.363281 -16.859375 C 11.046875 -16.859375 12.011719 -15.984375 12.011719 -14.390625 L 17.730469 -14.390625 C 17.730469 -18.722656 14.417969 -21.523438 9.242188 -21.523438 C 4.273438 -21.523438 1.203125 -19.054688 1.203125 -15.082031 C 1.203125 -11.53125 3.523438 -9.332031 8.277344 -8.429688 C 10.835938 -7.917969 12.070312 -7.132812 12.070312 -5.929688 C 12.070312 -4.875 11.167969 -4.273438 9.691406 -4.273438 C 7.945312 -4.273438 6.921875 -5.207031 6.921875 -6.832031 L 1.054688 -6.832031 C 1.054688 -2.289062 4.304688 0.453125 9.785156 0.453125 Z M 9.785156 0.453125 "/></g></g></g></svg>