<svg xmlns="http://www.w3.org/2000/svg" xmlns:xlink="http://www.w3.org/1999/xlink" width="500" zoomAndPan="magnify" viewBox="0 0 375 374.999991" height="500" preserveAspectRatio="xMidYMid meet" version="1.0"><defs><g/><clipPath id="e568c3c381"><path d="M 37.5 151.464844 L 337.5 151.464844 L 337.5 223.464844 L 37.5 223.464844 Z M 37.5 151.464844 " clip-rule="nonzero"/></clipPath><clipPath id="c226c90105"><path d="M 45.117188 158.355469 L 168.890625 158.355469 L 168.890625 216.882812 L 45.117188 216.882812 Z M 45.117188 158.355469 " clip-rule="nonzero"/></clipPath></defs><g clip-path="url(#e568c3c381)"><path stroke-linecap="butt" transform="matrix(0.75, 0, 0, 0.749268, 37.500925, 151.464614)" fill="none" stroke-linejoin="miter" d="M -0.00123312 0.000306561 L 399.998793 0.000306561 L 399.998793 96.094067 L -0.00123312 96.094067 L -0.00123312 0.000306561 " stroke="#000000" stroke-width="6" stroke-opacity="1" stroke-miterlimit="4"/></g><g clip-path="url(#c226c90105)"><path fill="#000000" d="M 45.117188 158.355469 L 169.074219 158.355469 L 169.074219 216.964844 L 45.117188 216.964844 Z M 45.117188 158.355469 " fill-opacity="1" fill-rule="nonzero"/></g><g fill="#ffffff" fill-opacity="1"><g transform="translate(64.54695, 196.618259)"><g><path d="M 1.066406 0 L 4.015625 0 L 9.660156 -8.171875 L 11.292969 -5.8125 L 15.308594 0 L 18.230469 0 L 11.179688 -10.082031 L 17.890625 -19.660156 L 15 -19.660156 L 11.320312 -14.378906 L 9.660156 -11.910156 L 4.296875 -19.660156 L 1.347656 -19.660156 L 8.089844 -10.054688 Z M 1.066406 0 "/></g></g></g><g fill="#ffffff" fill-opacity="1"><g transform="translate(85.971393, 196.618259)"><g><path d="M 2.863281 0 L 5.335938 0 L 5.335938 -6.460938 L 9.523438 -6.460938 C 13.960938 -6.460938 16.824219 -9.015625 16.824219 -13.0625 C 16.824219 -17.078125 13.960938 -19.660156 9.523438 -19.660156 L 2.863281 -19.660156 Z M 5.335938 -8.761719 L 5.335938 -17.300781 L 9.464844 -17.300781 C 12.640625 -17.300781 14.296875 -15.839844 14.296875 -13.03125 C 14.296875 -10.222656 12.640625 -8.761719 9.464844 -8.761719 Z M 5.335938 -8.761719 "/></g></g></g><g fill="#ffffff" fill-opacity="1"><g transform="translate(106.048088, 196.618259)"><g><path d="M 7.613281 0 L 10.082031 0 L 10.082031 -17.300781 L 16.710938 -17.300781 L 16.710938 -19.660156 L 0.953125 -19.660156 L 0.953125 -17.300781 L 7.613281 -17.300781 Z M 7.613281 0 "/></g></g></g><g fill="#ffffff" fill-opacity="1"><g transform="translate(125.872075, 196.618259)"><g><path d="M 11.796875 0.363281 C 17.78125 0.363281 21.992188 -3.847656 21.992188 -9.832031 C 21.992188 -15.8125 17.78125 -20.027344 11.796875 -20.027344 C 5.8125 -20.027344 1.628906 -15.8125 1.628906 -9.832031 C 1.628906 -3.847656 5.8125 0.363281 11.796875 0.363281 Z M 4.15625 -9.832031 C 4.15625 -14.410156 7.273438 -17.554688 11.796875 -17.554688 C 16.320312 -17.554688 19.4375 -14.410156 19.4375 -9.832031 C 19.4375 -5.253906 16.320312 -2.105469 11.796875 -2.105469 C 7.273438 -2.105469 4.15625 -5.253906 4.15625 -9.832031 Z M 4.15625 -9.832031 "/></g></g></g><g fill="#000000" fill-opacity="1"><g transform="translate(180.624485, 198.268259)"><g><path d="M 7.828125 0.359375 C 12.015625 0.359375 14.496094 -1.613281 14.496094 -4.9375 C 14.496094 -7.730469 12.691406 -9.367188 8.597656 -10.285156 C 6.429688 -10.765625 5.636719 -11.292969 5.636719 -12.160156 C 5.636719 -12.980469 6.359375 -13.484375 7.488281 -13.484375 C 8.839844 -13.484375 9.609375 -12.789062 9.609375 -11.511719 L 14.183594 -11.511719 C 14.183594 -14.980469 11.535156 -17.21875 7.394531 -17.21875 C 3.417969 -17.21875 0.964844 -15.246094 0.964844 -12.066406 C 0.964844 -9.222656 2.816406 -7.464844 6.621094 -6.742188 C 8.667969 -6.332031 9.65625 -5.707031 9.65625 -4.746094 C 9.65625 -3.902344 8.933594 -3.417969 7.753906 -3.417969 C 6.359375 -3.417969 5.539062 -4.167969 5.539062 -5.464844 L 0.84375 -5.464844 C 0.84375 -1.832031 3.445312 0.359375 7.828125 0.359375 Z M 7.828125 0.359375 "/></g></g></g><g fill="#000000" fill-opacity="1"><g transform="translate(196.012851, 198.268259)"><g><path d="M 9.996094 0.359375 C 15.363281 0.359375 19.167969 -3.273438 19.167969 -8.429688 C 19.167969 -13.582031 15.363281 -17.21875 9.996094 -17.21875 C 4.625 -17.21875 0.820312 -13.582031 0.820312 -8.429688 C 0.820312 -3.273438 4.625 0.359375 9.996094 0.359375 Z M 5.753906 -8.429688 C 5.753906 -10.957031 7.515625 -12.714844 9.996094 -12.714844 C 12.5 -12.714844 14.234375 -10.957031 14.234375 -8.429688 C 14.234375 -5.898438 12.5 -4.140625 9.996094 -4.140625 C 7.515625 -4.140625 5.753906 -5.898438 5.753906 -8.429688 Z M 5.753906 -8.429688 "/></g></g></g><g fill="#000000" fill-opacity="1"><g transform="translate(216.024949, 198.268259)"><g><path d="M 1.78125 0 L 13.535156 0 L 13.535156 -4.503906 L 6.648438 -4.503906 L 6.648438 -16.859375 L 1.78125 -16.859375 Z M 1.78125 0 "/></g></g></g><g fill="#000000" fill-opacity="1"><g transform="translate(230.161045, 198.268259)"><g><path d="M 9.03125 0.359375 C 13.582031 0.359375 16.398438 -2.410156 16.398438 -6.9375 L 16.398438 -16.859375 L 11.558594 -16.859375 L 11.558594 -7.25 C 11.558594 -5.25 10.714844 -4.191406 9.03125 -4.191406 C 7.34375 -4.191406 6.503906 -5.25 6.503906 -7.25 L 6.503906 -16.859375 L 1.636719 -16.859375 L 1.636719 -6.9375 C 1.636719 -2.410156 4.480469 0.359375 9.03125 0.359375 Z M 9.03125 0.359375 "/></g></g></g><g fill="#000000" fill-opacity="1"><g transform="translate(248.222499, 198.268259)"><g><path d="M 5.804688 0 L 10.644531 0 L 10.644531 -12.355469 L 15.773438 -12.355469 L 15.773438 -16.859375 L 0.675781 -16.859375 L 0.675781 -12.355469 L 5.804688 -12.355469 Z M 5.804688 0 "/></g></g></g><g fill="#000000" fill-opacity="1"><g transform="translate(264.670461, 198.268259)"><g><path d="M 1.78125 0 L 6.648438 0 L 6.648438 -16.859375 L 1.78125 -16.859375 Z M 1.78125 0 "/></g></g></g><g fill="#000000" fill-opacity="1"><g transform="translate(273.099137, 198.268259)"><g><path d="M 9.996094 0.359375 C 15.363281 0.359375 19.167969 -3.273438 19.167969 -8.429688 C 19.167969 -13.582031 15.363281 -17.21875 9.996094 -17.21875 C 4.625 -17.21875 0.820312 -13.582031 0.820312 -8.429688 C 0.820312 -3.273438 4.625 0.359375 9.996094 0.359375 Z M 5.753906 -8.429688 C 5.753906 -10.957031 7.515625 -12.714844 9.996094 -12.714844 C 12.5 -12.714844 14.234375 -10.957031 14.234375 -8.429688 C 14.234375 -5.898438 12.5 -4.140625 9.996094 -4.140625 C 7.515625 -4.140625 5.753906 -5.898438 5.753906 -8.429688 Z M 5.753906 -8.429688 "/></g></g></g><g fill="#000000" fill-opacity="1"><g transform="translate(293.111236, 198.268259)"><g><path d="M 1.78125 0 L 6.597656 0 L 6.597656 -8.597656 L 13.003906 0 L 16.953125 0 L 16.953125 -16.859375 L 12.160156 -16.859375 L 12.160156 -8.308594 L 5.753906 -16.859375 L 1.78125 -16.859375 Z M 1.78125 0 "/></g></g></g><g fill="#000000" fill-opacity="1"><g transform="translate(311.871065, 198.268259)"><g><path d="M 7.828125 0.359375 C 12.015625 0.359375 14.496094 -1.613281 14.496094 -4.9375 C 14.496094 -7.730469 12.691406 -9.367188 8.597656 -10.285156 C 6.429688 -10.765625 5.636719 -11.292969 5.636719 -12.160156 C 5.636719 -12.980469 6.359375 -13.484375 7.488281 -13.484375 C 8.839844 -13.484375 9.609375 -12.789062 9.609375 -11.511719 L 14.183594 -11.511719 C 14.183594 -14.980469 11.535156 -17.21875 7.394531 -17.21875 C 3.417969 -17.21875 0.964844 -15.246094 0.964844 -12.066406 C 0.964844 -9.222656 2.816406 -7.464844 6.621094 -6.742188 C 8.667969 -6.332031 9.65625 -5.707031 9.65625 -4.746094 C 9.65625 -3.902344 8.933594 -3.417969 7.753906 -3.417969 C 6.359375 -3.417969 5.539062 -4.167969 5.539062 -5.464844 L 0.84375 -5.464844 C 0.84375 -1.832031 3.445312 0.359375 7.828125 0.359375 Z M 7.828125 0.359375 "/></g></g></g></svg>